<?xml version="1.0" encoding="utf-8"?>
<!-- Generator: Adobe Illustrator 16.0.0, SVG Export Plug-In . SVG Version: 6.00 Build 0)  -->
<!DOCTYPE svg PUBLIC "-//W3C//DTD SVG 1.1//EN" "http://www.w3.org/Graphics/SVG/1.1/DTD/svg11.dtd">
<svg version="1.1" id="Calque_1" xmlns="http://www.w3.org/2000/svg" xmlns:xlink="http://www.w3.org/1999/xlink" x="0px" y="0px"
	 width="40px" height="40px" viewBox="0 0 40 40" enable-background="new 0 0 40 40" xml:space="preserve">
<g transform="translate(4, 4)">
	
		<rect x="1" y="1" fill="none" stroke="#505269" stroke-width="2" stroke-linecap="square" stroke-miterlimit="10" width="30" height="30"/>
	<polygon fill="none" stroke="#ED9C28" stroke-width="2" stroke-linecap="square" stroke-miterlimit="10" points="13,12 19,16 
		13,20 	"/>
	
		<line fill="none" stroke="#505269" stroke-width="2" stroke-linecap="square" stroke-miterlimit="10" x1="1" y1="6" x2="31" y2="6"/>
	
		<line fill="none" stroke="#505269" stroke-width="2" stroke-linecap="square" stroke-miterlimit="10" x1="1" y1="26" x2="31" y2="26"/>
	
		<line fill="none" stroke="#505269" stroke-width="2" stroke-linecap="square" stroke-miterlimit="10" x1="6" y1="1" x2="6" y2="6"/>
	
		<line fill="none" stroke="#505269" stroke-width="2" stroke-linecap="square" stroke-miterlimit="10" x1="11" y1="1" x2="11" y2="6"/>
	
		<line fill="none" stroke="#505269" stroke-width="2" stroke-linecap="square" stroke-miterlimit="10" x1="16" y1="1" x2="16" y2="6"/>
	
		<line fill="none" stroke="#505269" stroke-width="2" stroke-linecap="square" stroke-miterlimit="10" x1="21" y1="1" x2="21" y2="6"/>
	
		<line fill="none" stroke="#505269" stroke-width="2" stroke-linecap="square" stroke-miterlimit="10" x1="26" y1="1" x2="26" y2="6"/>
	
		<line fill="none" stroke="#505269" stroke-width="2" stroke-linecap="square" stroke-miterlimit="10" x1="6" y1="26" x2="6" y2="31"/>
	
		<line fill="none" stroke="#505269" stroke-width="2" stroke-linecap="square" stroke-miterlimit="10" x1="11" y1="26" x2="11" y2="31"/>
	
		<line fill="none" stroke="#505269" stroke-width="2" stroke-linecap="square" stroke-miterlimit="10" x1="16" y1="26" x2="16" y2="31"/>
	
		<line fill="none" stroke="#505269" stroke-width="2" stroke-linecap="square" stroke-miterlimit="10" x1="21" y1="26" x2="21" y2="31"/>
	
		<line fill="none" stroke="#505269" stroke-width="2" stroke-linecap="square" stroke-miterlimit="10" x1="26" y1="26" x2="26" y2="31"/>
</g>
</svg>
